<svg width="696" height="713" viewBox="0 0 696 713" fill="none" xmlns="http://www.w3.org/2000/svg">
<g clip-path="url(#clip0_27_237)">
<path opacity="0.41" d="M257.434 498.42C250.576 498.386 243.717 498.117 236.842 497.561C161.568 491.398 74.3638 455.48 36.8701 390.077C4.11165 332.892 -8.74572 258.867 6.16748 195.114C20.2044 135.167 63.6802 86.6202 124.563 68.1814C193.046 47.4525 268.724 72.6438 336.095 44.3204C434.168 3.11524 557.434 35.8336 626.169 114.253C687.103 183.782 701.864 295.879 682.721 382.735C673.049 426.635 647.621 468.918 607.144 491.011C574.942 508.591 535.999 512.059 499.163 507.479C469.555 503.791 442.29 494.143 413.795 486.195C390.962 479.829 372.223 483.147 348.851 487.761C318.772 493.705 288.187 498.538 257.417 498.403L257.434 498.42Z" fill="#005BDA"/>
<path d="M274.234 456.474C268.69 456.457 263.13 456.221 257.586 455.766C196.669 450.782 126.113 421.718 95.7815 368.793C69.2748 322.536 58.8608 262.639 70.9262 211.027C82.2669 162.531 117.452 123.245 166.725 108.326C222.131 91.5541 283.368 111.929 337.898 89.0282C417.249 55.6868 516.991 82.1578 572.616 145.607C621.923 201.867 633.853 292.579 618.384 362.865C610.565 398.379 589.99 432.596 557.231 450.479C531.163 464.708 499.668 467.52 469.859 463.799C445.896 460.818 423.838 453.005 400.786 446.572C382.3 441.419 367.151 444.097 348.227 447.835C323.895 452.651 299.14 456.558 274.234 456.457V456.474Z" fill="#005BDA"/>
<g style="mix-blend-mode:multiply" opacity="0.87">
<path d="M630.079 691.076C646.449 691.076 659.72 690.065 659.72 688.819C659.72 687.573 646.449 686.563 630.079 686.563C613.708 686.563 600.438 687.573 600.438 688.819C600.438 690.065 613.708 691.076 630.079 691.076Z" fill="#515159"/>
</g>
<path d="M633.836 603.647C633.836 603.647 608.459 586.421 624.754 561.364C641.049 536.324 636.987 527.619 631.275 520.563C645.127 536.324 642.093 554.275 633.836 565.658C625.579 577.041 624.265 592.55 633.836 603.647Z" fill="#AFAFAF"/>
<path d="M654.546 625.033H605.611L610.38 686.95H649.777L654.546 625.033Z" fill="#FEFEFE"/>
<path d="M659.72 621.867H600.438V629.125H659.72V621.867Z" fill="#8B8B8C"/>
<path d="M648.076 615.333H612.065C608.492 615.333 605.594 618.23 605.594 621.8V621.867H654.529V621.8C654.529 618.23 651.631 615.333 648.059 615.333H648.076Z" fill="#5A5A63"/>
<path d="M651.833 660.294L652.979 645.307H607.178L608.324 660.294H651.833Z" fill="#EDB62B"/>
<g style="mix-blend-mode:multiply">
<path d="M654.546 621.867V621.8C654.546 618.23 651.648 615.333 648.076 615.333H630.247C633.82 615.333 636.718 618.23 636.718 621.8V621.867H641.891V629.125H636.398L631.932 686.95H649.761L654.226 629.125H659.72V621.867H654.546Z" fill="#AFAFAF"/>
</g>
<path d="M391.788 236.842C391.788 236.842 402.05 204.696 387.052 195.367C377.532 190.467 372.325 196.563 372.325 196.563C372.325 196.563 367.842 173.83 336.988 181.34C317.002 186.206 310.683 175.901 310.683 175.901C310.683 175.901 310.498 204.393 324.265 212.863C334.241 221.4 330.416 244.503 330.416 244.503L391.788 236.842Z" fill="#2F2F35"/>
<g style="mix-blend-mode:multiply" opacity="0.87">
<path d="M482.716 656.892C482.716 656.892 538.291 658.559 553.794 672.873C570.106 687.91 587.209 711.417 517.008 710.963C446.789 710.508 384.558 691.193 325.664 697.323C266.769 703.452 218.457 714.01 204.37 711.67C190.299 709.329 290.63 661.287 290.63 661.287L476.919 668.124L482.716 656.892Z" fill="#515159"/>
</g>
<path d="M430.747 531.997L360.697 524.958L290.647 531.997C290.647 531.997 286.485 565.069 272.954 582.716L360.697 614.205L448.441 582.716C434.909 565.069 430.747 531.997 430.747 531.997Z" fill="#A87D1D"/>
<g style="mix-blend-mode:multiply">
<path d="M357.934 613.212C359.776 613.874 360.697 614.205 360.697 614.205C360.697 614.205 360.697 614.205 363.461 613.212C379.604 576.098 375.745 534.472 374.785 526.373L360.697 524.958L342.667 526.76C342.313 535.651 341.706 576.334 357.934 613.195V613.212Z" fill="#A87D1D"/>
</g>
<g style="mix-blend-mode:multiply">
<path d="M290.243 534.691C290.243 534.691 363.95 567.174 435.145 553.062C431.944 541.511 430.747 531.997 430.747 531.997L360.697 524.958L304.432 530.599L290.26 534.674L290.243 534.691Z" fill="#895436"/>
</g>
<path d="M324.265 212.863C334.241 221.4 330.416 244.503 330.416 244.503L343.459 242.87C356.855 230.965 371.971 215.877 369.78 210.202C365.938 200.25 354.816 190.315 334.325 189.17C313.834 188.042 310.683 175.901 310.683 175.901C310.683 175.901 310.498 204.393 324.265 212.863Z" fill="#515159"/>
<path d="M358.153 293.539L300.236 314.638L290.647 531.997C290.647 531.997 311.121 541.578 360.697 541.578V296.907L358.153 293.539Z" fill="white"/>
<path d="M363.242 293.539L421.159 314.638L430.747 531.997C430.747 531.997 410.273 541.578 360.697 541.578V296.907L363.242 293.539Z" fill="white"/>
<path d="M300.236 314.621L299.966 314.722C283.048 320.767 269.533 333.75 262.843 350.404L200.679 500.76L253.541 507.058L298.298 397.469L300.252 314.638L300.236 314.621Z" fill="#FF7E6E"/>
<path d="M421.159 314.621L421.429 314.722C438.347 320.767 451.862 333.75 458.551 350.404L520.715 500.76L467.853 507.058L423.097 397.469L421.142 314.638L421.159 314.621Z" fill="#FF7E6E"/>
<path d="M482.682 408.802L458.551 350.421C451.862 333.767 438.347 320.767 421.429 314.739L421.159 314.638L423.114 397.469L435.786 428.521C452.704 414.359 469.69 409.762 482.699 408.802H482.682Z" fill="#E8E8E8"/>
<path d="M238.695 408.802L262.826 350.421C269.516 333.767 283.031 320.767 299.949 314.739L300.219 314.638L298.264 397.469L285.592 428.521C268.674 414.359 251.688 409.762 238.679 408.802H238.695Z" fill="#E8E8E8"/>
<path d="M424.934 400.332C424.934 400.332 423.366 398.143 421.159 394.017L423.114 397.469C423.114 397.469 401.072 519.687 342.178 541.107C347.84 541.41 353.991 541.595 360.697 541.595C410.273 541.595 430.747 532.014 430.747 532.014L424.934 400.349V400.332Z" fill="#D3D3D3"/>
<g style="mix-blend-mode:overlay" opacity="0.52">
<path d="M272.954 384.318C287.901 342.439 288.726 342.759 321.35 335.098C353.974 327.419 347.57 297.395 347.57 297.395L317.154 308.475L312.453 310.193L300.252 314.638L299.983 314.739C283.064 320.784 269.55 333.767 262.86 350.421L203.275 494.547C228.433 476.041 260.248 419.983 272.971 384.318H272.954Z" fill="#FFF6E7"/>
</g>
<g style="mix-blend-mode:multiply" opacity="0.28">
<path d="M448.441 384.318C433.494 342.439 432.668 342.759 400.045 335.098C367.421 327.419 373.824 297.395 373.824 297.395L404.24 308.475L408.942 310.193L421.142 314.638L421.412 314.739C438.33 320.784 451.845 333.767 458.535 350.421L518.12 494.547C492.961 476.041 461.147 419.983 448.424 384.318H448.441Z" fill="#4C2A29"/>
</g>
<path d="M360.849 320.347H360.529C351.968 320.347 345.026 313.409 345.026 304.855V267.876H376.335V304.855C376.335 313.409 369.392 320.347 360.832 320.347H360.849Z" fill="#FF7E6E"/>
<path d="M376.099 296.401C376.183 296.401 376.268 296.401 376.352 296.401V267.893H361.742L345.043 273.921C345.043 273.921 351.261 296.418 376.099 296.418V296.401Z" fill="#4C2A29"/>
<path d="M397.112 245.648C397.112 251.205 392.613 255.701 387.052 255.701C381.492 255.701 376.992 251.205 376.992 245.648C376.992 240.092 381.492 235.595 387.052 235.595C392.613 235.595 397.112 240.092 397.112 245.648Z" fill="#C64F4F"/>
<path d="M389.024 255.499C390.473 249.673 391.333 242.23 391.788 236.825C390.372 236.067 388.771 235.595 387.052 235.595C381.492 235.595 376.992 240.092 376.992 245.648C376.992 251.205 381.492 255.701 387.052 255.701C387.726 255.701 388.384 255.634 389.007 255.499H389.024Z" fill="#803D3D"/>
<path d="M324.265 245.648C324.265 251.205 328.764 255.701 334.325 255.701C339.886 255.701 344.385 251.205 344.385 245.648C344.385 240.092 339.886 235.595 334.325 235.595C328.764 235.595 324.265 240.092 324.265 245.648Z" fill="#C64F4F"/>
<path d="M332.371 255.499C330.921 249.673 330.062 242.23 329.607 236.825C331.023 236.067 332.623 235.595 334.342 235.595C339.903 235.595 344.402 240.092 344.402 245.648C344.402 251.205 339.903 255.701 334.342 255.701C333.668 255.701 333.011 255.634 332.387 255.499H332.371Z" fill="#803D3D"/>
<path d="M378.391 210.522H343.004L334.241 229.651L335.707 248.578C336.499 258.682 343.02 276.11 352.204 280.404C354.934 281.684 357.833 282.526 360.68 282.526C363.528 282.526 366.427 281.684 369.157 280.404C378.34 276.127 384.879 258.682 385.654 248.578L387.12 229.651L378.357 210.522H378.391Z" fill="#FF7E6E"/>
<path d="M369.78 234.518C369.78 234.518 375.712 236.185 382.435 234.518" stroke="#2F2F35" stroke-width="1.34" stroke-miterlimit="10" stroke-linecap="round"/>
<path d="M367.859 223.64C367.859 223.64 376.537 222.192 381.744 225.206" stroke="#2F2F35" stroke-width="2.67" stroke-miterlimit="10" stroke-linecap="round"/>
<path d="M351.615 234.518C351.615 234.518 345.683 236.185 338.959 234.518" stroke="#2F2F35" stroke-width="1.34" stroke-miterlimit="10" stroke-linecap="round"/>
<path d="M353.536 223.64C353.536 223.64 344.857 222.192 339.65 225.206" stroke="#2F2F35" stroke-width="2.67" stroke-miterlimit="10" stroke-linecap="round"/>
<g style="mix-blend-mode:overlay" opacity="0.52">
<path d="M346.593 251.02C345.43 231.891 343.004 210.522 343.004 210.522L334.241 229.651L334.713 235.663C334.578 235.663 334.46 235.629 334.325 235.629C328.764 235.629 324.265 240.125 324.265 245.682C324.265 251.239 328.764 255.735 334.325 255.735C335.202 255.735 336.044 255.583 336.853 255.381C339.229 265.148 344.857 277.003 352.204 280.421C354.934 281.701 357.833 282.543 360.68 282.543C360.68 282.543 347.739 270.166 346.576 251.037L346.593 251.02Z" fill="#FFF6E7"/>
</g>
<path d="M421.159 617.017L221.019 556.346C194.445 548.297 166.489 563.924 159.479 590.765L159.209 591.776C151.98 619.442 169.926 647.378 198.101 652.312C272.094 665.244 406.229 687.219 476.818 689.914L506.577 709.733C511.076 712.731 517.042 712.225 520.968 708.538L521.12 708.386C525.804 704.008 526.04 696.649 521.659 691.968L517.025 687.017C517.025 687.017 512.896 666.878 492.456 658.256C472.032 649.618 470.111 628.535 465.309 617.017C460.506 605.516 429.804 599.757 421.159 617.017Z" fill="#305D9D"/>
<path d="M159.462 590.765C166.489 563.924 194.428 548.28 221.002 556.346L288.878 576.923C278.649 589.671 265.168 615.535 264.764 663.56C239.976 659.536 217.059 655.629 198.101 652.312C169.926 647.395 151.963 619.442 159.209 591.776L159.479 590.765H159.462Z" fill="#305D9D"/>
<g style="mix-blend-mode:multiply" opacity="0.67">
<path d="M222.603 632.947C222.603 641.097 220.648 648.793 217.193 655.612C210.487 654.467 204.083 653.356 198.101 652.312C169.926 647.395 151.963 619.442 159.209 591.776L159.479 590.765C160.102 588.357 160.911 586.033 161.871 583.811C165.258 583.087 168.747 582.716 172.353 582.716C200.123 582.716 222.62 605.213 222.62 632.947H222.603Z" fill="#305D9D"/>
</g>
<path d="M430.747 644.835C430.747 644.835 427.866 661.59 400.044 655.612Z" fill="#305D9D"/>
<g style="mix-blend-mode:multiply" opacity="0.28">
<path d="M448.441 637.157C448.441 637.157 405.808 635.237 315.587 619.156C242.504 606.122 221.069 568.756 215.559 555.033C217.379 555.369 219.199 555.79 221.002 556.346L421.142 617.017C429.787 599.757 460.489 605.516 465.292 617.017C470.094 628.518 472.015 649.618 492.439 658.256C512.862 666.895 517.008 687.017 517.008 687.017C517.008 687.017 495.994 673.597 482.716 670.717C469.437 667.838 448.424 637.157 448.424 637.157H448.441Z" fill="#305D9D"/>
</g>
<path d="M457.675 688.819C457.675 688.819 494.427 723.962 525.754 709.497C530.961 707.089 532.595 700.438 529.191 695.824C502.802 660.007 469.522 620.991 456.833 606.325C453.665 602.654 448.626 601.172 443.975 602.519L407.88 612.993L457.658 688.819H457.675Z" fill="#2F2F35"/>
<path d="M407.88 612.993L373.319 602.519L399.505 683.043L457.675 688.819L407.88 612.993Z" fill="#A5A5A5"/>
<path d="M300.236 617.017L500.376 556.346C526.95 548.297 554.906 563.924 561.916 590.765L562.186 591.775C569.415 619.442 551.468 647.378 523.293 652.312C449.3 665.244 315.166 687.219 244.576 689.914L214.818 709.733C210.318 712.731 204.353 712.225 200.427 708.538L200.275 708.386C195.59 704.008 195.355 696.649 199.736 691.968L204.37 687.017C204.37 687.017 208.498 666.878 228.939 658.256C249.362 649.618 251.283 628.535 256.086 617.017C260.888 605.516 291.591 599.757 300.236 617.017Z" fill="#FF7E6E"/>
<path d="M561.916 590.765C554.889 563.924 526.95 548.28 500.376 556.346L432.5 576.923C442.728 589.671 456.209 615.535 456.614 663.56C481.402 659.536 504.319 655.629 523.276 652.312C551.468 647.395 569.415 619.442 562.169 591.776L561.899 590.765H561.916Z" fill="#305D9D"/>
<g style="mix-blend-mode:multiply" opacity="0.67">
<path d="M498.792 632.947C498.792 641.097 500.747 648.793 504.201 655.612C510.908 654.467 517.311 653.356 523.293 652.312C551.485 647.395 569.432 619.442 562.186 591.776L561.916 590.765C561.292 588.357 560.484 586.033 559.523 583.811C556.136 583.087 552.648 582.716 549.042 582.716C521.271 582.716 498.775 605.213 498.775 632.947H498.792Z" fill="#A87D1D"/>
</g>
<g style="mix-blend-mode:multiply" opacity="0.28">
<path d="M272.954 637.157C272.954 637.157 315.587 635.237 405.791 619.156C478.874 606.122 500.308 568.756 505.819 555.033C503.999 555.369 502.179 555.79 500.376 556.346L300.236 617.017C291.591 599.757 260.888 605.516 256.086 617.017C251.283 628.518 249.362 649.618 228.939 658.256C208.515 666.895 204.37 687.017 204.37 687.017C204.37 687.017 225.383 673.597 238.662 670.717C251.94 667.838 272.954 637.157 272.954 637.157Z" fill="#4C2A29"/>
</g>
<path opacity="0.57" d="M228.939 658.256L198.944 652.699C171.797 648.372 153.395 622.709 158.029 595.632L158.215 594.571C163.27 565.035 193.265 546.782 221.844 555.824L278.498 573.775" stroke="white" stroke-width="1.11" stroke-miterlimit="10"/>
<path d="M350.401 250.7C349.323 250.7 348.682 251.946 349.356 252.805C352.356 256.661 356.333 259.019 360.714 259.019C365.095 259.019 369.072 256.661 372.072 252.805C372.729 251.963 372.105 250.7 371.027 250.7H350.418H350.401Z" fill="white"/>
<path d="M363.663 234.097V244.503C363.663 244.503 361.27 243.156 357.934 244.503" stroke="#2F2F35" stroke-width="0.82" stroke-miterlimit="10" stroke-linecap="round"/>
<path d="M372.341 196.562H369.78V212.846H372.341V196.562Z" fill="#FF7E6E"/>
<path d="M520.715 500.76L520.816 501.047C526.815 517.65 519.637 536.122 503.982 544.306L397.112 600.296L396.59 598.932C387.17 574.616 397.028 547.101 419.727 534.253L467.853 507.041L520.715 500.743V500.76Z" fill="#FF7E6E"/>
<g style="mix-blend-mode:multiply" opacity="0.28">
<path d="M498.152 535.062C498.152 539.002 499.129 542.706 500.865 545.973L503.999 544.323C516.334 537.857 523.378 525.009 522.872 511.723C522.434 511.706 522.013 511.655 521.575 511.655C508.633 511.655 498.152 522.129 498.152 535.062Z" fill="#4C2A29"/>
</g>
<path d="M467.853 507.058L498.152 489.899" stroke="#4C2A29" stroke-width="1.34" stroke-miterlimit="10" stroke-linecap="round"/>
<path d="M200.983 500.76L200.882 501.047C194.883 517.65 202.061 536.122 217.716 544.306L324.585 600.296L325.108 598.932C334.528 574.616 324.67 547.101 301.971 534.253L253.845 507.041L200.983 500.743V500.76Z" fill="#FF7E6E"/>
<g style="mix-blend-mode:multiply" opacity="0.28">
<path d="M223.546 535.062C223.546 539.002 222.569 542.706 220.833 545.973L217.699 544.323C205.364 537.857 198.32 525.009 198.826 511.723C199.264 511.706 199.685 511.655 200.123 511.655C213.065 511.655 223.546 522.129 223.546 535.062Z" fill="#4C2A29"/>
</g>
<path d="M253.845 507.058L223.546 489.899" stroke="#4C2A29" stroke-width="1.34" stroke-miterlimit="10" stroke-linecap="round"/>
<path d="M312.722 594.099C312.722 594.099 318.115 564.53 300.556 555.033" stroke="#4C2A29" stroke-width="1.34" stroke-miterlimit="10" stroke-linecap="round"/>
<path d="M408.672 594.099C408.672 594.099 403.28 564.53 420.839 555.033" stroke="#4C2A29" stroke-width="1.34" stroke-miterlimit="10" stroke-linecap="round"/>
<path d="M263.719 688.819C263.719 688.819 226.967 723.962 195.641 709.497C190.434 707.089 188.799 700.438 192.203 695.824C218.592 660.007 251.873 620.991 264.562 606.325C267.73 602.654 272.768 601.172 277.419 602.519L313.514 612.993L263.736 688.819H263.719Z" fill="#2F2F35"/>
<path d="M313.497 612.993L348.076 602.519L321.889 683.043L263.719 688.819L313.497 612.993Z" fill="#ECECEC"/>
<g style="mix-blend-mode:multiply" opacity="0.28">
<path d="M299.123 634.9C309.386 633.806 322.698 632.206 339.178 629.882L348.076 602.519L313.514 612.993L299.14 634.884L299.123 634.9Z" fill="#4C2A29"/>
</g>
<path d="M274.74 664.369L254.687 694.915C253.44 696.818 251.216 697.828 248.958 697.525H248.823C244.475 696.919 242.268 691.968 244.728 688.348L265.236 658.088C266.55 656.151 268.926 655.225 271.201 655.764L271.319 655.798C275.127 656.69 276.897 661.102 274.757 664.386L274.74 664.369Z" fill="#FFF6E7"/>
<path d="M357.934 487.845H235.207L265.472 595.547H357.934H450.412L480.677 487.845H357.934Z" fill="#AFAFAF"/>
<path d="M450.412 595.548H265.472V611.241H450.412V595.548Z" fill="#8B8B8C"/>
<path d="M358.153 565.54C374.728 565.54 388.165 558.665 388.165 550.183C388.165 541.701 374.728 534.826 358.153 534.826C341.578 534.826 328.141 541.701 328.141 550.183C328.141 558.665 341.578 565.54 358.153 565.54Z" fill="#5A5A63"/>
<path d="M480.66 480.688H235.207V487.828H480.66V480.688Z" fill="#5A5A63"/>
<path d="M294.237 600.043H275.717V606.358H294.237V600.043Z" fill="#5A5A63"/>
<path d="M320.962 600.043H302.443V606.358H320.962V600.043Z" fill="#5A5A63"/>
<path d="M450.412 603.394H337.847" stroke="#0F1201" stroke-miterlimit="10"/>
<g style="mix-blend-mode:overlay" opacity="0.54">
<path d="M235.207 487.845L265.472 595.547H331.343C370.454 550.233 394.214 487.845 394.214 487.845L394.13 480.705H235.207V487.845Z" fill="white"/>
</g>
<path opacity="0.57" d="M235.207 487.845H480.677" stroke="#0F1201" stroke-miterlimit="10"/>
<g style="mix-blend-mode:multiply" opacity="0.87">
<path d="M107.695 691.076C132.274 691.076 152.199 690.065 152.199 688.819C152.199 687.573 132.274 686.563 107.695 686.563C83.1165 686.563 63.1915 687.573 63.1915 688.819C63.1915 690.065 83.1165 691.076 107.695 691.076Z" fill="#515159"/>
</g>
<path d="M114.2 666.676L117.115 663.493C116.761 663.156 81.6266 627.559 124.058 467.217L119.879 466.122C76.5713 629.832 112.616 665.244 114.183 666.659L114.2 666.676Z" fill="#5A5A63"/>
<path d="M101.123 469.995C117.199 484.595 114.368 501.838 114.368 501.838C114.368 501.838 98.2754 494.985 94.5345 473.599C93.8773 469.844 98.2923 467.419 101.106 469.979L101.123 469.995Z" fill="#5A5A63"/>
<path d="M141.33 480.301C120.216 485.369 114.385 501.838 114.385 501.838C114.385 501.838 131.792 503.556 145.357 486.616C147.733 483.652 145.037 479.392 141.33 480.284V480.301Z" fill="#5A5A63"/>
<path d="M90.1195 511.925C107.577 524.823 106.516 542.285 106.516 542.285C106.516 542.285 89.8162 537.082 83.952 516.185C82.9241 512.514 87.0695 509.668 90.1195 511.925Z" fill="#5A5A63"/>
<path d="M131.152 518.138C110.661 525.295 106.499 542.286 106.499 542.286C106.499 542.286 123.99 542.252 135.786 524.032C137.859 520.833 134.741 516.892 131.152 518.138Z" fill="#5A5A63"/>
<path d="M83.1263 548.701C101.494 560.286 101.713 577.765 101.713 577.765C101.713 577.765 84.6766 573.808 77.279 553.399C75.9815 549.829 79.9078 546.664 83.1263 548.701Z" fill="#5A5A63"/>
<path d="M124.513 551.867C104.595 560.522 101.713 577.765 101.713 577.765C101.713 577.765 119.154 576.435 129.568 557.407C131.388 554.073 128.001 550.351 124.513 551.867Z" fill="#5A5A63"/>
<path d="M135.55 437.866C135.921 459.555 121.395 469.322 121.395 469.322C121.395 469.322 115.379 452.904 128.405 435.543C130.697 432.495 135.483 434.044 135.533 437.85L135.55 437.866Z" fill="#5A5A63"/>
<path d="M129.349 595.581H82.6882V687.826H129.349V595.581Z" fill="#EDB62B"/>
<g style="mix-blend-mode:multiply" opacity="0.67">
<path d="M129.332 595.581H110.695V687.826H129.332V595.581Z" fill="#A87D1D"/>
</g>
<path d="M149.823 155.66L133.039 159.836C130.596 160.443 128.136 158.961 127.529 156.519L125.911 150.019L151.525 143.654L153.143 150.154C153.749 152.596 152.266 155.054 149.823 155.66Z" fill="#A87D1D"/>
<path d="M186.023 30.4206L41.0078 66.4706C38.4881 67.097 36.9536 69.646 37.5804 72.1639L61.5048 168.265C62.1317 170.783 64.6825 172.317 67.2022 171.69L212.218 135.64C214.737 135.014 216.272 132.465 215.645 129.947L191.721 33.8455C191.094 31.3276 188.543 29.7942 186.023 30.4206Z" fill="#A87D1D"/>
<path d="M207.909 119.035L203.881 130.654L75.1895 162.632L63.7645 154.869L40.0718 59.644L184.216 23.8105L207.909 119.035Z" fill="#EDB62B"/>
<path d="M110.303 42.1636L40.0684 59.6236L63.7731 154.843L134.008 137.383L110.303 42.1636Z" fill="white"/>
<path d="M105.967 50.3233L48.2585 64.6693L49.0884 68.0029L106.797 53.6569L105.967 50.3233Z" fill="#AFAFAF"/>
<path d="M108.616 60.9887L50.907 75.3348L51.7369 78.6683L109.445 64.3223L108.616 60.9887Z" fill="#AFAFAF"/>
<path d="M111.276 71.617L53.5677 85.963L54.3976 89.2966L112.106 74.9505L111.276 71.617Z" fill="#AFAFAF"/>
<path d="M113.925 82.2824L56.2163 96.6284L57.0462 99.962L114.755 85.616L113.925 82.2824Z" fill="#AFAFAF"/>
<path d="M116.573 92.9479L58.8648 107.294L59.6947 110.627L117.403 96.2814L116.573 92.9479Z" fill="#AFAFAF"/>
<path d="M119.238 103.609L61.5297 117.955L62.3596 121.289L120.068 106.943L119.238 103.609Z" fill="#AFAFAF"/>
<path d="M121.883 114.242L64.1741 128.588L65.004 131.921L122.712 117.575L121.883 114.242Z" fill="#AFAFAF"/>
<path d="M124.531 124.907L66.8226 139.253L67.6525 142.587L125.361 128.241L124.531 124.907Z" fill="#AFAFAF"/>
<path d="M184.226 23.7953L113.992 41.2553L137.696 136.474L207.931 119.014L184.226 23.7953Z" fill="white"/>
<path d="M179.349 32.0811L121.641 46.4272L122.47 49.7607L180.179 35.4147L179.349 32.0811Z" fill="#AFAFAF"/>
<path d="M181.998 42.7466L124.289 57.0926L125.119 60.4262L182.827 46.0801L181.998 42.7466Z" fill="#AFAFAF"/>
<path d="M184.658 53.3916L126.95 67.7377L127.78 71.0712L185.488 56.7252L184.658 53.3916Z" fill="#AFAFAF"/>
<path d="M187.307 64.0402L129.598 78.3863L130.428 81.7198L188.137 67.3738L187.307 64.0402Z" fill="#AFAFAF"/>
<path d="M189.972 74.7016L132.263 89.0477L133.093 92.3812L190.802 78.0352L189.972 74.7016Z" fill="#AFAFAF"/>
<path d="M192.616 85.3507L134.908 99.6968L135.737 103.03L193.446 88.6843L192.616 85.3507Z" fill="#AFAFAF"/>
<path d="M195.265 95.9993L137.556 110.345L138.386 113.679L196.095 99.3329L195.265 95.9993Z" fill="#AFAFAF"/>
<path d="M197.929 106.661L140.221 121.007L141.051 124.34L198.759 109.994L197.929 106.661Z" fill="#AFAFAF"/>
<path d="M145.425 150.087L134.32 152.848C131.893 153.454 129.416 151.973 128.81 149.531L127.799 145.456L147.733 140.505L148.744 144.58C149.351 147.005 147.868 149.48 145.425 150.087Z" fill="#EDB62B"/>
<path d="M392.057 13.1683C386.294 7.69564 379.014 3.95736 371.516 1.46518C371.465 1.44834 371.347 1.41467 371.179 1.36415C364.388 -0.454472 357.226 -0.454472 350.435 1.36415C350.266 1.41467 350.148 1.44834 350.098 1.46518C342.599 3.95736 335.32 7.69564 329.556 13.1683C312.402 29.4686 315.183 59.0548 331.899 74.6646C336.583 79.0428 338.639 84.7007 340.072 90.9312C340.51 92.8003 342.987 112.384 342.127 112.384H379.486C378.627 112.384 381.104 92.8003 381.542 90.9312C382.974 84.7007 385.03 79.0428 389.715 74.6646C406.414 59.0548 409.212 29.4686 392.057 13.1683Z" fill="#EDB62B"/>
<g style="mix-blend-mode:overlay" opacity="0.52">
<path d="M354.092 90.9142C352.659 84.6837 350.603 79.0258 345.919 74.6476C329.219 59.0378 326.422 29.4516 343.576 13.1513C349.339 7.67864 356.619 3.94037 364.118 1.44819C364.168 1.43135 364.286 1.39767 364.455 1.34715C365.567 1.04405 366.696 0.825142 367.825 0.623074C362.062 -0.40411 356.13 -0.168363 350.452 1.34715C350.283 1.39767 350.165 1.43135 350.115 1.44819C342.616 3.94037 335.336 7.67864 329.573 13.1513C312.419 29.4516 315.199 59.0378 331.915 74.6476C336.6 79.0258 338.656 84.6837 340.088 90.9142C340.526 92.7833 343.003 112.367 342.144 112.367H356.164C357.024 112.367 354.546 92.7833 354.108 90.9142H354.092Z" fill="#FFF6E7"/>
</g>
<path d="M360.798 112.367V66.7164L368.836 62.0857C371.499 60.5533 370.96 56.5793 367.994 55.7879L353.367 51.9317C350.873 51.275 350.587 47.8398 352.946 46.7958L360.798 43.2596V27.7677" stroke="#FEFEFE" stroke-width="2.24" stroke-miterlimit="10" stroke-linecap="round"/>
<path d="M383.193 118.648C383.193 120.029 382.064 121.157 380.683 121.157H339.6C338.218 121.157 337.089 120.029 337.089 118.648C337.089 117.267 338.218 116.139 339.6 116.139H380.683C382.064 116.139 383.193 117.267 383.193 118.648Z" fill="#2F2F35"/>
<path d="M383.193 126.192C383.193 127.573 382.064 128.701 380.683 128.701H339.6C338.218 128.701 337.089 127.573 337.089 126.192C337.089 124.811 338.218 123.683 339.6 123.683H380.683C382.064 123.683 383.193 124.811 383.193 126.192Z" fill="#2F2F35"/>
<path d="M383.193 133.736C383.193 135.117 382.064 136.245 380.683 136.245H339.6C338.218 136.245 337.089 135.117 337.089 133.736C337.089 132.355 338.218 131.227 339.6 131.227H380.683C382.064 131.227 383.193 132.355 383.193 133.736Z" fill="#2F2F35"/>
<path d="M360.141 153.842C368.247 153.842 374.818 147.275 374.818 139.175H345.481C345.481 147.275 352.053 153.842 360.158 153.842H360.141Z" fill="#2F2F35"/>
<path d="M533.943 163.474V151.67H528.719C527.725 146.062 525.433 140.926 522.164 136.548L526.31 132.406L517.952 124.053L513.655 128.347C509.256 125.35 504.15 123.329 498.64 122.538V116.375H486.828V122.774C481.553 123.767 476.7 125.923 472.504 128.97L468.325 124.794L459.967 133.147L464.197 137.373C461.096 141.768 458.99 146.887 458.147 152.444H452.283V164.248H458.282C459.242 169.654 461.433 174.638 464.534 178.898L459.916 183.512L468.275 191.864L472.942 187.2C477.222 190.214 482.194 192.285 487.586 193.178V199.543H499.398V193.178C504.757 192.285 509.711 190.231 513.991 187.234L517.901 191.14L526.259 182.788L522.417 178.949C525.686 174.47 527.927 169.216 528.82 163.491H533.943V163.474ZM493.501 177.989C482.413 177.989 473.414 168.997 473.414 157.917C473.414 146.837 482.413 137.845 493.501 137.845C504.589 137.845 513.587 146.837 513.587 157.917C513.587 168.997 504.589 177.989 493.501 177.989Z" fill="#666666"/>
<path d="M581.025 208.232V201.429H578.009C577.436 198.196 576.121 195.232 574.234 192.706L576.627 190.315L571.808 185.499L569.33 187.975C566.786 186.24 563.854 185.078 560.669 184.624V181.071H553.861V184.758C550.811 185.331 548.014 186.577 545.604 188.328L543.194 185.92L538.375 190.736L540.818 193.178C539.032 195.721 537.819 198.667 537.33 201.867H533.943V208.67H537.398C537.954 211.785 539.218 214.665 541.004 217.123L538.341 219.784L543.161 224.6L545.857 221.905C548.334 223.64 551.199 224.835 554.299 225.357V229.028H561.107V225.357C564.208 224.835 567.056 223.657 569.533 221.922L571.791 224.179L576.61 219.363L574.403 217.157C576.29 214.563 577.587 211.532 578.093 208.232H581.042H581.025ZM557.703 216.601C551.3 216.601 546.11 211.415 546.11 205.016C546.11 198.617 551.3 193.43 557.703 193.43C564.107 193.43 569.297 198.617 569.297 205.016C569.297 211.415 564.107 216.601 557.703 216.601Z" fill="#9E9E9E"/>
<path d="M688.366 120.063V95.8312H677.649C675.627 84.3133 670.909 73.7552 664.185 64.7631L672.695 56.2594L655.541 39.1172L646.727 47.924C637.695 41.7609 627.197 37.6354 615.89 36.002V23.339H591.641V36.4735C580.806 38.511 570.83 42.9565 562.236 49.187L553.659 40.6159L536.505 57.7581L545.2 66.447C538.847 75.4728 534.516 85.9972 532.764 97.3804H520.715V121.612H533.016C535.005 132.726 539.487 142.93 545.857 151.703L536.387 161.167L553.541 178.309L563.129 168.728C571.926 174.907 582.137 179.168 593.192 181.003V194.087H617.44V181.003C628.444 179.168 638.639 174.941 647.401 168.795L655.423 176.81L672.577 159.668L664.691 151.787C671.397 142.576 675.998 131.783 677.835 120.046H688.35L688.366 120.063ZM605.324 149.868C582.542 149.868 564.073 131.412 564.073 108.646C564.073 85.8793 582.542 67.4237 605.324 67.4237C628.107 67.4237 646.576 85.8793 646.576 108.646C646.576 131.412 628.107 149.868 605.324 149.868Z" fill="#8B8B8C"/>
<path d="M604.549 132.928C617.923 132.928 628.764 122.094 628.764 108.73C628.764 95.3659 617.923 84.5322 604.549 84.5322C591.176 84.5322 580.334 95.3659 580.334 108.73C580.334 122.094 591.176 132.928 604.549 132.928Z" fill="#666666"/>
<path d="M132.972 232.48C80.9525 235.629 40.51 266.781 42.6669 302.059C44.807 337.337 88.7209 363.37 140.74 360.221H140.858C145.981 359.902 149.553 354.951 148.289 349.983C147.666 347.575 147.329 345.033 147.295 342.423C147.026 325.6 160.051 311.169 176.801 309.654C188.968 308.559 200.073 314.268 206.493 323.563C209.661 328.143 216.385 328.48 219.805 324.068C227.624 314.015 231.787 302.564 231.062 290.626C228.922 255.348 185.008 229.315 132.989 232.463L132.972 232.48Z" fill="#5A5A63"/>
<path d="M132.618 226.772C80.5987 229.921 40.1561 261.073 42.2962 296.351C44.4363 331.629 88.3502 357.662 140.369 354.513C140.403 354.513 140.454 354.513 140.487 354.513C145.61 354.193 149.183 349.259 147.919 344.292C147.295 341.884 146.958 339.341 146.925 336.731C146.655 319.909 159.681 305.478 176.431 303.962C188.597 302.868 199.702 308.576 206.122 317.871C209.29 322.451 216.014 322.788 219.435 318.376C227.254 308.323 231.416 296.873 230.691 284.934C228.551 249.656 184.637 223.623 132.618 226.772Z" fill="#8B8B8C"/>
<path d="M114.25 326.779C114.638 333.043 109.852 338.432 103.584 338.819C97.315 339.206 91.9226 334.424 91.535 328.16C91.1475 321.896 95.9332 316.507 102.202 316.12C108.47 315.733 113.863 320.515 114.25 326.779Z" fill="#EDB62B"/>
<path d="M83.2612 305.259C83.6487 311.523 78.863 316.911 72.5944 317.299C66.3258 317.686 60.9335 312.904 60.5459 306.64C60.1583 300.375 64.944 294.987 71.2126 294.6C77.4812 294.212 82.8736 298.995 83.2612 305.259Z" fill="#EDB62B"/>
<path d="M92.3608 267.623C92.7483 273.888 87.9626 279.276 81.694 279.663C75.4254 280.051 70.0331 275.268 69.6455 269.004C69.2579 262.74 74.0436 257.352 80.3122 256.964C86.5808 256.577 91.9732 261.359 92.3608 267.623Z" fill="#EDB62B"/>
<path d="M130.781 247.299C131.169 253.563 126.383 258.951 120.114 259.339C113.846 259.726 108.453 254.944 108.066 248.679C107.678 242.415 112.464 237.027 118.733 236.639C125.001 236.252 130.394 241.034 130.781 247.299Z" fill="#EDB62B"/>
<path d="M174.038 247.854C174.426 254.118 169.64 259.507 163.371 259.894C157.103 260.282 151.71 255.499 151.323 249.235C150.935 242.971 155.721 237.582 161.989 237.195C168.258 236.808 173.65 241.59 174.038 247.854Z" fill="#EDB62B"/>
<path d="M210.537 268.415C210.925 274.679 206.139 280.067 199.871 280.455C193.602 280.842 188.21 276.06 187.822 269.796C187.435 263.531 192.22 258.143 198.489 257.756C204.757 257.368 210.15 262.151 210.537 268.415Z" fill="#EDB62B"/>
<g style="mix-blend-mode:multiply" opacity="0.68">
<path d="M183.255 233.507L172.538 255.903C171.123 255.836 169.758 256.644 169.202 258.025L169.168 258.092C168.46 259.844 169.303 261.848 171.055 262.555L172.066 262.959C171.864 262.892 170.853 262.774 168.696 265.906C168.561 266.091 168.427 266.293 168.292 266.512C168.292 266.529 168.258 266.563 168.258 266.579C168.123 266.781 167.988 267 167.854 267.219C167.82 267.27 167.803 267.303 167.769 267.354C167.634 267.556 167.517 267.792 167.382 268.011C167.348 268.078 167.297 268.145 167.264 268.213C167.146 268.432 167.011 268.667 166.876 268.903C166.826 269.004 166.775 269.088 166.725 269.189C166.607 269.425 166.472 269.661 166.337 269.913C166.27 270.031 166.202 270.166 166.135 270.284C166.017 270.52 165.882 270.772 165.747 271.025C165.663 271.176 165.596 271.328 165.511 271.496C165.393 271.749 165.258 272.002 165.141 272.271C165.056 272.456 164.955 272.641 164.871 272.827C164.753 273.096 164.618 273.349 164.483 273.635C164.382 273.837 164.281 274.056 164.18 274.275C164.062 274.544 163.927 274.831 163.792 275.117C163.674 275.369 163.573 275.622 163.455 275.875C163.337 276.161 163.203 276.447 163.085 276.733C162.967 277.02 162.832 277.323 162.714 277.609C162.596 277.912 162.461 278.198 162.343 278.501C162.208 278.821 162.074 279.158 161.939 279.495C161.821 279.798 161.686 280.101 161.568 280.421C161.416 280.792 161.265 281.179 161.113 281.566C160.995 281.886 160.86 282.189 160.742 282.509C160.574 282.947 160.405 283.402 160.22 283.856C160.102 284.159 160.001 284.429 159.883 284.732C159.681 285.271 159.462 285.843 159.243 286.416C159.158 286.652 159.074 286.887 158.973 287.14C158.67 287.965 158.35 288.824 158.029 289.716C157.17 292.107 156.176 294.92 155.064 298.035C154.929 298.388 154.811 298.742 154.676 299.112C154.508 299.584 154.339 300.072 154.17 300.561C154.036 300.965 153.884 301.352 153.749 301.773C153.53 302.413 153.294 303.07 153.058 303.726C152.957 304.029 152.856 304.316 152.738 304.619C152.502 305.276 152.266 305.949 152.03 306.606C151.912 306.943 151.794 307.279 151.677 307.633C151.457 308.256 151.222 308.913 151.002 309.553C150.868 309.957 150.733 310.344 150.581 310.748C150.312 311.489 150.059 312.247 149.789 313.022C149.688 313.308 149.587 313.594 149.486 313.88C149.216 314.655 148.93 315.446 148.66 316.238C148.542 316.575 148.424 316.911 148.306 317.248C148.054 317.989 147.784 318.73 147.531 319.488C147.396 319.875 147.262 320.245 147.127 320.633C146.857 321.424 146.571 322.232 146.284 323.041C146.166 323.394 146.048 323.731 145.93 324.085C145.661 324.876 145.374 325.685 145.105 326.476C144.97 326.88 144.835 327.267 144.683 327.672C144.431 328.396 144.178 329.12 143.925 329.844C143.74 330.366 143.571 330.871 143.386 331.393C143.167 332.016 142.948 332.639 142.729 333.279C142.526 333.868 142.324 334.474 142.105 335.064C141.869 335.737 141.65 336.411 141.414 337.085C141.296 337.438 141.178 337.792 141.043 338.145C139.156 343.635 137.252 349.192 135.382 354.715C137.033 354.681 138.701 354.597 140.369 354.496C140.403 354.496 140.454 354.496 140.487 354.496C145.61 354.176 149.183 349.242 147.919 344.275C147.295 341.867 146.958 339.324 146.925 336.714C146.689 321.997 156.631 309.098 170.348 305.09C171.864 301.807 173.212 298.86 174.358 296.385C186.423 269.981 183.424 267.607 183.053 267.421L184.064 267.825C185.817 268.533 187.822 267.691 188.53 265.939L188.564 265.872C189.238 264.239 188.53 262.386 186.996 261.578L195.018 238.525C191.31 236.656 187.384 234.972 183.255 233.491V233.507Z" fill="#2F2F35"/>
</g>
<path opacity="0.42" d="M90.406 265.889C90.5577 268.516 88.5692 270.755 85.9405 270.924C83.3117 271.075 81.0705 269.088 80.902 266.462C80.7503 263.835 82.7388 261.595 85.3675 261.427C87.9963 261.275 90.2375 263.262 90.406 265.889Z" fill="white"/>
<path opacity="0.42" d="M128.826 245.968C128.978 248.595 126.99 250.835 124.361 251.003C121.732 251.155 119.491 249.168 119.322 246.541C119.154 243.914 121.159 241.674 123.788 241.506C126.417 241.338 128.658 243.341 128.826 245.968Z" fill="white"/>
<path opacity="0.42" d="M169.522 244.941C169.673 247.568 167.685 249.808 165.056 249.976C162.428 250.144 160.186 248.141 160.018 245.514C159.849 242.887 161.855 240.647 164.483 240.479C167.112 240.327 169.353 242.314 169.522 244.941Z" fill="white"/>
<path opacity="0.42" d="M78.4586 301.908C78.6103 304.535 76.6218 306.774 73.9931 306.943C71.3643 307.094 69.1231 305.107 68.9546 302.48C68.7861 299.853 70.7914 297.614 73.4201 297.445C76.0489 297.294 78.2901 299.281 78.4586 301.908Z" fill="white"/>
<path opacity="0.42" d="M112.178 323.479C112.329 326.106 110.341 328.345 107.712 328.513C105.083 328.665 102.842 326.678 102.674 324.051C102.505 321.424 104.51 319.185 107.139 319.016C109.768 318.865 112.009 320.852 112.178 323.479Z" fill="white"/>
<path d="M224.844 226.738C224.844 226.738 240.364 218.268 241.358 205.167C241.291 197.421 237.937 191.073 237.937 191.073L235.814 199.055C235.814 199.055 234.651 186.526 225.686 180.464C216.739 174.402 218.929 176.103 218.929 176.103C218.929 176.103 226.445 186.072 218.103 202.608C209.762 219.144 220.294 224.886 220.294 224.886L224.844 226.738Z" fill="#EDB62B"/>
<path d="M223.883 221.366C223.883 221.366 221.069 206.986 227.49 199.257C219.148 209.815 217.429 218.302 219.519 225.172L223.883 221.366Z" fill="#A87D1D"/>
<path d="M216.385 224.212C217.75 221.451 221.019 220.205 223.883 221.366H223.934L223.985 221.4C226.849 222.562 228.315 225.728 227.355 228.675L217.143 260.012L209.459 256.88L201.775 253.748L216.368 224.212H216.385Z" fill="white"/>
<path d="M200.595 260.753L213.587 266.041C215.34 266.748 217.345 265.906 218.053 264.155L218.087 264.087C218.794 262.336 217.952 260.332 216.199 259.625L203.207 254.337C201.455 253.63 199.449 254.472 198.742 256.223L198.708 256.291C198 258.042 198.843 260.046 200.595 260.753Z" fill="#CCCCCC"/>
<path d="M201.64 261.191L207.1 263.414L212.559 265.636C212.559 265.636 216.705 266.613 203.915 294.616C194.411 315.43 169.943 367.614 155.856 395.499C154.541 398.109 150.581 396.493 151.457 393.714C160.86 363.926 179.852 309.502 187.586 287.965C198 259.002 201.657 261.191 201.657 261.191H201.64Z" fill="#2F2F35"/>
<path d="M172.521 361.4C166.438 374.097 160.557 386.154 155.839 395.482C154.524 398.093 150.564 396.476 151.441 393.698C154.592 383.729 158.805 370.982 163.321 357.645L172.521 361.383V361.4Z" fill="white"/>
<g style="mix-blend-mode:overlay" opacity="0.75">
<path d="M170.6 336.377C190.653 311.573 198.185 264.323 198.219 264.121C195.995 267.354 192.557 274.073 187.569 287.965C183.795 298.489 177.324 316.861 170.6 336.377Z" fill="white"/>
</g>
<path d="M558.832 278.215L562.388 285.405L570.342 286.551L564.595 292.158L565.943 300.055L558.832 296.334L551.738 300.055L553.086 292.158L547.34 286.551L555.294 285.405L558.832 278.215Z" fill="#9E9E9E"/>
<path d="M661.118 268.162L666.089 278.198L677.177 279.815L669.156 287.628L671.044 298.675L661.118 293.455L651.193 298.675L653.097 287.628L645.076 279.815L656.164 278.198L661.118 268.162Z" fill="#666666"/>
<path d="M630.079 418.687L632.842 424.294L639.043 425.187L634.561 429.548L635.623 435.711L630.079 432.815L624.535 435.711L625.596 429.548L621.114 425.187L627.315 424.294L630.079 418.687Z" fill="#9E9E9E"/>
<path d="M531.298 380.698L536.252 390.751L547.34 392.367L539.319 400.181L541.206 411.227L531.298 406.007L521.372 411.227L523.26 400.181L515.239 392.367L526.326 390.751L531.298 380.698Z" fill="#666666"/>
<path d="M626.385 404.439C654.744 393.076 668.515 360.891 657.144 332.553C645.772 304.215 613.565 290.453 585.206 301.817C556.847 313.18 543.077 345.365 554.448 373.703C565.819 402.041 598.027 415.802 626.385 404.439Z" fill="#EDB62B"/>
<g style="mix-blend-mode:multiply" opacity="0.67">
<path d="M590.917 406.361C610.464 411.816 630.466 406.057 644.116 392.957C634.864 395.432 624.872 395.55 614.98 392.805C585.558 384.604 568.353 354.109 576.56 324.708C579.323 314.823 584.598 306.336 591.506 299.719C573.24 304.619 557.939 318.747 552.496 338.263C544.29 367.664 561.478 398.16 590.917 406.361Z" fill="#A87D1D"/>
</g>
<g style="mix-blend-mode:overlay" opacity="0.52">
<path d="M620.659 299.87C617.895 299.096 615.132 298.557 612.385 298.22C610.936 303.39 610.161 308.829 610.161 314.453C610.161 343.231 630.314 367.277 657.293 373.322C657.967 371.588 658.574 369.803 659.079 367.967C667.286 338.566 650.098 308.071 620.659 299.87Z" fill="#FFF6E7"/>
</g>
<path d="M550.659 348.569C529.191 340.217 515.845 332.656 516.974 328.631C518.845 321.946 560.029 327.604 608.998 341.244C657.95 354.9 696.118 371.369 694.264 378.054C693.152 382.062 677.902 381.641 655.338 377.717" stroke="#666666" stroke-width="2" stroke-miterlimit="10"/>
</g>
<defs>
<clipPath id="clip0_27_237">
<rect width="696" height="713" fill="white"/>
</clipPath>
</defs>
</svg>
